<svg xmlns="http://www.w3.org/2000/svg" width="364" height="88" preserveAspectRatio="xMidYMid meet" style="width: 100%; height: 100%; transform: translate3d(0px, 0px, 0px);"><defs><clipPath id="__lottie_element_274"><rect width="364" height="88" x="0" y="0"></rect></clipPath><mask id="__lottie_element_275" mask-type="alpha"><g filter="url(#__lottie_element_277)" transform="matrix(1,0,0,1,181.7729949951172,44)" opacity="1" style="display: block;"><g opacity="1" transform="matrix(1,0,0,1,0,0)"><path fill="url(#__lottie_element_278)" fill-opacity="1" d=" M-158.27999877929688,44 C-162.69520568847656,44 -168.07467651367188,40.89678955078125 -170.2850799560547,37.07473373413086 C-170.2850799560547,37.07473373413086 -179.9949188232422,20.285266876220703 -179.9949188232422,20.285266876220703 C-182.205322265625,16.463211059570312 -182.2034149169922,10.257890701293945 -179.99066162109375,6.437195301055908 C-179.99066162109375,6.437195301055908 -154.78933715820312,-37.07719421386719 -154.78933715820312,-37.07719421386719 C-152.5765838623047,-40.897891998291016 -147.19520568847656,-44 -142.77999877929688,-44 C-142.77999877929688,-44 158.27999877929688,-44 158.27999877929688,-44 C162.69520568847656,-44 168.07687377929688,-40.8980598449707 170.28997802734375,-37.077571868896484 C170.28997802734375,-37.077571868896484 179.99002075195312,-20.332427978515625 179.99002075195312,-20.332427978515625 C182.203125,-16.511940002441406 182.20458984375,-10.307212829589844 179.9932861328125,-6.485681533813477 C179.9932861328125,-6.485681533813477 154.78671264648438,37.075679779052734 154.78671264648438,37.075679779052734 C152.57540893554688,40.897212982177734 147.19520568847656,44 142.77999877929688,44 C142.77999877929688,44 -158.27999877929688,44 -158.27999877929688,44z"></path></g></g></mask><filter id="__lottie_element_277" filterUnits="objectBoundingBox" x="0%" y="0%" width="100%" height="100%"><feGaussianBlur in="SourceAlpha" result="drop_shadow_1" stdDeviation="1.5"></feGaussianBlur><feOffset dx="1.2246467991473532e-16" dy="2" in="drop_shadow_1" result="drop_shadow_2"></feOffset>
<feFlood flood-color="#000000" flood-opacity="0.1" result="drop_shadow_3"></feFlood><feComposite in="drop_shadow_3" in2="drop_shadow_2" operator="in" result="drop_shadow_4"></feComposite><feMerge><feMergeNode></feMergeNode><feMergeNode in="SourceGraphic"></feMergeNode></feMerge></filter><linearGradient id="__lottie_element_278" spreadMethod="pad" gradientUnits="userSpaceOnUse" x1="-167.98899841308594" y1="-30.070999145507812" x2="162.01400756835938" y2="53.24100112915039">
<stop offset="0%" stop-color="rgb(255,255,255)"></stop>
<stop offset="100%" stop-color="rgb(0,0,0)"></stop></linearGradient><linearGradient id="__lottie_element_285" spreadMethod="pad" gradientUnits="userSpaceOnUse" x1="-167.98899841308594" y1="-30.070999145507812" x2="162.01400756835938" y2="53.24100112915039">
<!-- <stop offset="0%" stop-color="rgb(62,119,255)">
</stop><stop offset="50%" stop-color="rgb(159,98,212)"></stop>
<stop offset="100%" stop-color="rgb(255,78,170)"></stop> -->
<stop offset="0%" stop-color="#3b4354">
</stop><stop offset="100%" stop-color="#3b4354"></stop>
</linearGradient>
</defs><g clip-path="url(#__lottie_element_274)"><g transform="matrix(1,0,0,1,182,44)" opacity="1" style="display: block;"><g opacity="1" transform="matrix(1,0,0,1,0,0)"><path fill="url(#__lottie_element_285)" fill-opacity="1" d=" M-158.27999877929688,44 C-162.69520568847656,44 -168.07467651367188,40.89678955078125 -170.2850799560547,37.07473373413086 C-170.2850799560547,37.07473373413086 -179.9949188232422,20.285266876220703 -179.9949188232422,20.285266876220703 C-182.205322265625,16.463211059570312 -182.2034149169922,10.257890701293945 -179.99066162109375,6.437195301055908 C-179.99066162109375,6.437195301055908 -154.78933715820312,-37.07719421386719 -154.78933715820312,-37.07719421386719 C-152.5765838623047,-40.897891998291016 -147.19520568847656,-44 -142.77999877929688,-44 C-142.77999877929688,-44 158.27999877929688,-44 158.27999877929688,-44 C162.69520568847656,-44 168.07687377929688,-40.8980598449707 170.28997802734375,-37.077571868896484 C170.28997802734375,-37.077571868896484 179.99002075195312,-20.332427978515625 179.99002075195312,-20.332427978515625 C182.203125,-16.511940002441406 182.20458984375,-10.307212829589844 179.9932861328125,-6.485681533813477 C179.9932861328125,-6.485681533813477 154.78671264648438,37.075679779052734 154.78671264648438,37.075679779052734 C152.57540893554688,40.897212982177734 147.19520568847656,44 142.77999877929688,44 C142.77999877929688,44 -158.27999877929688,44 -158.27999877929688,44z"></path></g></g><g mask="url(#__lottie_element_275)" style="mix-blend-mode: overlay; display: block;"><g class="png" transform="matrix(1,0,0,1,-266.49700927734375,-88.74000549316406)" opacity="1"><image width="261px" height="260px" preserveAspectRatio="xMidYMid slice"></image></g></g></g></svg>